{"title":"Mad Max Road Fury {2015} HDRiP XVID AC3-MRG","uid":12051605,"size":1242191484,"categoryP":"video","categoryS":"movies","magnet":"?xt=urn:btih:cc7537a451935cfdc376364cc1409b8e757e3cfa&amp;dn=Mad+Max+Road+Fury+%7B2015%7D+HDRiP+XVID+AC3-MRG&amp;tr=udp%3A%2F%2Ftracker.openbittorrent.com%3A80&amp;tr=udp%3A%2F%2Fopen.demonii.com%3A1337&amp;tr=udp%3A%2F%2Ftracker.coppersurfer.tk%3A6969&amp;tr=udp%3A%2F%2Fexodus.desync.com%3A6969","seeders":5,"leechers":0,"uploader":"SaM","files":11,"time":1435008782,"description":"Mad Max Road Fury {2015} HDRiP XVID AC3-MRG\n\nsubz                        : Eng ...yes\nFormat                      : AVI\nFormat/Info                 : Audio Video Interleave\nFile size                   : 1.15 GiB\nDuration                    : 2h 0mn\nOverall bit rate            : 1 374 Kbps\nWriting library             : VirtualDub build 35491/release\n\nVideo\nID                          : 0\nFormat                      : MPEG-4 Visual\nFormat profile              : Advanced Simple@L5\nFormat settings, BVOP       : 2\nFormat settings, QPel       : No\nFormat settings, GMC        : No warppoints\nFormat settings, Matrix     : Default (H.263)\nCodec ID                    : XVID\nCodec ID/Hint               : XviD\nDuration                    : 2h 0mn\nBit rate                    : 1 268 Kbps\nWidth                       : 720 pixels\nHeight                      : 304 pixels\nDisplay aspect ratio        : 2.35:1\nFrame rate                  : 23.976 fps\nColor space                 : YUV\nChroma subsampling          : 4:2:0\nBit depth                   : 8 bits\nScan type                   : Progressive\nCompression mode            : Lossy\nBits/(Pixel*Frame)          : 0.242\nStream size                 : 1.07 GiB (92%)\nWriting library             : XviD 66\n\nAudio\nID                          : 1\nFormat                      : AC-3\nFormat/Info                 : Audio Coding 3\nMode extension              : CM (complete main)\nFormat settings, Endianness : Big\nCodec ID                    : 2000\nDuration                    : 2h 0mn\nBit rate mode               : Constant\nBit rate                    : 96.0 Kbps\nChannel(s)                  : 2 channels\nChannel positions           : Front: L R\nSampling rate               : 32.0 KHz\nCompression mode            : Lossy\nStream size                 : 82.6 MiB (7%)\nAlignment                   : Split accross interleaves\nInterleave, duration        : 42 ms (1.00 video frame)\nInterleave, preload duratio : 500 ms\n &lt;a href=&quot;\nhttp://extraimago.com/image/swT&quot; rel=&quot;nofollow&quot; target=&quot;_NEW&quot;&gt;\nhttp://extraimago.com/image/swT&lt;/a&gt; &lt;a href=&quot;\nhttp://extraimago.com/image/swN&quot; rel=&quot;nofollow&quot; target=&quot;_NEW&quot;&gt;\nhttp://extraimago.com/image/swN&lt;/a&gt; &lt;a href=&quot;\nhttp://extraimago.com/image/sw2&quot; rel=&quot;nofollow&quot; target=&quot;_NEW&quot;&gt;\nhttp://extraimago.com/image/sw2&lt;/a&gt; &lt;a href=&quot;\nhttp://extraimago.com/image/sww&quot; rel=&quot;nofollow&quot; target=&quot;_NEW&quot;&gt;\nhttp://extraimago.com/image/sww&lt;/a&gt; &lt;a href=&quot;\nhttp://extraimago.com/image/swa&quot; rel=&quot;nofollow&quot; target=&quot;_NEW&quot;&gt;\nhttp://extraimago.com/image/swa&lt;/a&gt; &lt;a href=&quot;\nhttp://extraimago.com/image/sw8&quot; rel=&quot;nofollow&quot; target=&quot;_NEW&quot;&gt;\nhttp://extraimago.com/image/sw8&lt;/a&gt;","torrent":{"xt":"urn:btih:cc7537a451935cfdc376364cc1409b8e757e3cfa","amp;dn":"Mad+Max+Road+Fury+%7B2015%7D+HDRiP+XVID+AC3-MRG","amp;tr":["udp%3A%2F%2Ftracker.openbittorrent.com%3A80","udp%3A%2F%2Fopen.demonii.com%3A1337","udp%3A%2F%2Ftracker.coppersurfer.tk%3A6969","udp%3A%2F%2Fexodus.desync.com%3A6969"],"infoHash":"cc7537a451935cfdc376364cc1409b8e757e3cfa","infoHashBuffer":{"type":"Buffer","data":[204,117,55,164,81,147,92,253,195,118,54,76,193,64,155,142,117,126,60,250]},"announce":[],"urlList":[]}}